<svg xmlns="http://www.w3.org/2000/svg" viewBox="0 0 512 512">
  <defs>
    <linearGradient id="grad1" x1="0%" y1="0%" x2="100%" y2="100%">
      <stop offset="0%" style="stop-color:#2D1B14;stop-opacity:1" />
      <stop offset="100%" style="stop-color:#C37D46;stop-opacity:1" />
    </linearGradient>
  </defs>
  <rect width="512" height="512" rx="100" fill="url(#grad1)"/>
  <path d="M344 144c-3.92 52.87-44 96-88 96s-84.15-43.12-88-96c-4-55 35-96 88-96s92 42 88 96z" fill="#fff" opacity="0.9"/>
  <path d="M256 64C150 64 64 150 64 256s86 192 192 192 192-86 192-192S362 64 256 64zm0 336c-79.5 0-144-64.5-144-144s64.5-144 144-144 144 64.5 144 144-64.5 144-144 144z" fill="#fff" opacity="0.1"/>
  <path d="M368 240h-48v16c0 35.3-28.7 64-64 64s-64-28.7-64-64v-16h-48c-17.7 0-32 14.3-32 32v32c0 61.9 50.1 112 112 112h64c61.9 0 112-50.1 112-112v-32c0-17.7-14.3-32-32-32zm-64 16c0 17.7-14.3 32-32 32s-32-14.3-32-32v-16h64v16z" fill="#fff"/>
  <path d="M416 272c17.7 0 32 14.3 32 32v16c0 35.3-28.7 64-64 64h-16v-32h16c17.7 0 32-14.3 32-32v-16c0-17.7-14.3-32-32-32h-16v-32h48z" fill="#fff"/>
  <!-- Cyber Sparkle -->
  <path d="M360 120l15 15-15 15-15-15 15-15z" fill="#FFD700"/>
</svg>
